<?xml version="1.0" encoding="iso-8859-1"?>
<!-- Generator: Adobe Illustrator 19.1.1, SVG Export Plug-In . SVG Version: 6.00 Build 0)  -->
<svg version="1.1"  xmlns="http://www.w3.org/2000/svg" xmlns:xlink="http://www.w3.org/1999/xlink" x="0px" y="0px"
	 viewBox="0 0 48 48" style="enable-background:new 0 0 48 48;" xml:space="preserve">
<circle style="fill:#BBDEFB;" cx="24" cy="24" r="19"/>
<g>
	<path style="fill:#3F51B5;" d="M24,35c-4.263,0-7.953-2.445-9.776-6H17l-4-5l-4,5h3.018c1.962,4.691,6.588,8,11.982,8
		c6.134,0,11.277-4.276,12.637-10h-2.063C33.263,31.61,29.024,35,24,35z"/>
	<path style="fill:#3F51B5;" d="M24,13c4.263,0,7.953,2.445,9.776,6H31l4,5l4-5h-3.018C34.02,14.309,29.395,11,24,11
		c-6.134,0-11.277,4.276-12.637,10h2.063C14.737,16.39,18.976,13,24,13z"/>
</g>
</svg>
